<mxfile host="app.diagrams.net" agent="Mozilla/5.0 (Macintosh; Intel Mac OS X 10_15_7) AppleWebKit/537.36 (KHTML, like Gecko) Chrome/127.0.0.0 Safari/537.36" version="24.7.8">
  <diagram name="第 1 页" id="2EQmv688gZamet-rj9C1">
    <mxGraphModel dx="1266" dy="547" grid="1" gridSize="10" guides="1" tooltips="1" connect="1" arrows="1" fold="1" page="1" pageScale="1" pageWidth="827" pageHeight="1169" math="0" shadow="0">
      <root>
        <mxCell id="0" />
        <mxCell id="1" parent="0" />
        <mxCell id="JIK8sXZGodHxqaqUen1i-60" style="edgeStyle=orthogonalEdgeStyle;rounded=0;orthogonalLoop=1;jettySize=auto;html=1;exitX=0.5;exitY=1;exitDx=0;exitDy=0;entryX=0.5;entryY=0;entryDx=0;entryDy=0;" parent="1" source="JIK8sXZGodHxqaqUen1i-1" target="JIK8sXZGodHxqaqUen1i-3" edge="1">
          <mxGeometry relative="1" as="geometry" />
        </mxCell>
        <mxCell id="JIK8sXZGodHxqaqUen1i-61" style="rounded=0;orthogonalLoop=1;jettySize=auto;html=1;exitX=0.75;exitY=1;exitDx=0;exitDy=0;entryX=0.5;entryY=0;entryDx=0;entryDy=0;" parent="1" source="JIK8sXZGodHxqaqUen1i-1" target="JIK8sXZGodHxqaqUen1i-5" edge="1">
          <mxGeometry relative="1" as="geometry" />
        </mxCell>
        <mxCell id="JIK8sXZGodHxqaqUen1i-62" style="rounded=0;orthogonalLoop=1;jettySize=auto;html=1;exitX=0.25;exitY=1;exitDx=0;exitDy=0;entryX=0.5;entryY=0;entryDx=0;entryDy=0;" parent="1" source="JIK8sXZGodHxqaqUen1i-1" target="JIK8sXZGodHxqaqUen1i-4" edge="1">
          <mxGeometry relative="1" as="geometry" />
        </mxCell>
        <mxCell id="JIK8sXZGodHxqaqUen1i-1" value="5000W 英语关键词" style="rounded=1;whiteSpace=wrap;html=1;" parent="1" vertex="1">
          <mxGeometry x="280" y="80" width="160" height="40" as="geometry" />
        </mxCell>
        <mxCell id="JIK8sXZGodHxqaqUen1i-2" value="本地翻译服务（在本机跑最快且稳定），输出到文件后去重" style="rounded=0;whiteSpace=wrap;html=1;" parent="1" vertex="1">
          <mxGeometry x="120" y="160" width="480" height="40" as="geometry" />
        </mxCell>
        <mxCell id="JIK8sXZGodHxqaqUen1i-64" style="edgeStyle=orthogonalEdgeStyle;rounded=0;orthogonalLoop=1;jettySize=auto;html=1;exitX=0.5;exitY=1;exitDx=0;exitDy=0;entryX=0.5;entryY=0;entryDx=0;entryDy=0;" parent="1" source="JIK8sXZGodHxqaqUen1i-3" target="JIK8sXZGodHxqaqUen1i-8" edge="1">
          <mxGeometry relative="1" as="geometry" />
        </mxCell>
        <mxCell id="JIK8sXZGodHxqaqUen1i-3" value="5000W 法语关键词" style="rounded=1;whiteSpace=wrap;html=1;" parent="1" vertex="1">
          <mxGeometry x="305" y="240" width="110" height="40" as="geometry" />
        </mxCell>
        <mxCell id="JIK8sXZGodHxqaqUen1i-63" style="edgeStyle=orthogonalEdgeStyle;rounded=0;orthogonalLoop=1;jettySize=auto;html=1;exitX=0.5;exitY=1;exitDx=0;exitDy=0;entryX=0.5;entryY=0;entryDx=0;entryDy=0;" parent="1" source="JIK8sXZGodHxqaqUen1i-4" target="JIK8sXZGodHxqaqUen1i-7" edge="1">
          <mxGeometry relative="1" as="geometry" />
        </mxCell>
        <mxCell id="JIK8sXZGodHxqaqUen1i-4" value="5000W 德语关键词" style="rounded=1;whiteSpace=wrap;html=1;" parent="1" vertex="1">
          <mxGeometry x="120" y="240" width="110" height="40" as="geometry" />
        </mxCell>
        <mxCell id="JIK8sXZGodHxqaqUen1i-65" style="edgeStyle=orthogonalEdgeStyle;rounded=0;orthogonalLoop=1;jettySize=auto;html=1;exitX=0.5;exitY=1;exitDx=0;exitDy=0;entryX=0.5;entryY=0;entryDx=0;entryDy=0;" parent="1" source="JIK8sXZGodHxqaqUen1i-5" target="JIK8sXZGodHxqaqUen1i-9" edge="1">
          <mxGeometry relative="1" as="geometry" />
        </mxCell>
        <mxCell id="JIK8sXZGodHxqaqUen1i-5" value="5000W&amp;nbsp;&lt;div&gt;意大利语关键词&lt;/div&gt;" style="rounded=1;whiteSpace=wrap;html=1;" parent="1" vertex="1">
          <mxGeometry x="480" y="240" width="110" height="40" as="geometry" />
        </mxCell>
        <mxCell id="JIK8sXZGodHxqaqUen1i-6" value="CSV上传到ODPS，不分区，全量覆盖" style="rounded=0;whiteSpace=wrap;html=1;" parent="1" vertex="1">
          <mxGeometry x="120" y="320" width="480" height="40" as="geometry" />
        </mxCell>
        <mxCell id="JIK8sXZGodHxqaqUen1i-66" style="edgeStyle=orthogonalEdgeStyle;rounded=0;orthogonalLoop=1;jettySize=auto;html=1;exitX=0.5;exitY=1;exitDx=0;exitDy=0;entryX=0.5;entryY=0;entryDx=0;entryDy=0;" parent="1" source="JIK8sXZGodHxqaqUen1i-7" target="JIK8sXZGodHxqaqUen1i-11" edge="1">
          <mxGeometry relative="1" as="geometry" />
        </mxCell>
        <mxCell id="JIK8sXZGodHxqaqUen1i-69" style="rounded=0;orthogonalLoop=1;jettySize=auto;html=1;exitX=0.75;exitY=1;exitDx=0;exitDy=0;entryX=0.25;entryY=0;entryDx=0;entryDy=0;" parent="1" source="JIK8sXZGodHxqaqUen1i-7" target="JIK8sXZGodHxqaqUen1i-10" edge="1">
          <mxGeometry relative="1" as="geometry" />
        </mxCell>
        <mxCell id="JIK8sXZGodHxqaqUen1i-7" value="德语关键词表" style="rounded=1;whiteSpace=wrap;html=1;" parent="1" vertex="1">
          <mxGeometry x="120" y="400" width="110" height="40" as="geometry" />
        </mxCell>
        <mxCell id="JIK8sXZGodHxqaqUen1i-67" style="edgeStyle=orthogonalEdgeStyle;rounded=0;orthogonalLoop=1;jettySize=auto;html=1;exitX=0.5;exitY=1;exitDx=0;exitDy=0;" parent="1" source="JIK8sXZGodHxqaqUen1i-8" target="JIK8sXZGodHxqaqUen1i-10" edge="1">
          <mxGeometry relative="1" as="geometry" />
        </mxCell>
        <mxCell id="JIK8sXZGodHxqaqUen1i-8" value="法语关键词表" style="rounded=1;whiteSpace=wrap;html=1;" parent="1" vertex="1">
          <mxGeometry x="305" y="400" width="110" height="40" as="geometry" />
        </mxCell>
        <mxCell id="JIK8sXZGodHxqaqUen1i-68" style="rounded=0;orthogonalLoop=1;jettySize=auto;html=1;exitX=0.5;exitY=1;exitDx=0;exitDy=0;entryX=0.75;entryY=0;entryDx=0;entryDy=0;" parent="1" source="JIK8sXZGodHxqaqUen1i-9" target="JIK8sXZGodHxqaqUen1i-10" edge="1">
          <mxGeometry relative="1" as="geometry" />
        </mxCell>
        <mxCell id="JIK8sXZGodHxqaqUen1i-9" value="意大利语关键词表" style="rounded=1;whiteSpace=wrap;html=1;" parent="1" vertex="1">
          <mxGeometry x="480" y="400" width="110" height="40" as="geometry" />
        </mxCell>
        <mxCell id="JIK8sXZGodHxqaqUen1i-71" style="edgeStyle=orthogonalEdgeStyle;rounded=0;orthogonalLoop=1;jettySize=auto;html=1;exitX=0.5;exitY=1;exitDx=0;exitDy=0;entryX=0.5;entryY=0;entryDx=0;entryDy=0;" parent="1" source="JIK8sXZGodHxqaqUen1i-10" target="JIK8sXZGodHxqaqUen1i-15" edge="1">
          <mxGeometry relative="1" as="geometry" />
        </mxCell>
        <mxCell id="JIK8sXZGodHxqaqUen1i-10" value="EP源关键词&lt;div&gt;ODPS表&lt;/div&gt;" style="rounded=1;whiteSpace=wrap;html=1;" parent="1" vertex="1">
          <mxGeometry x="305" y="560" width="110" height="40" as="geometry" />
        </mxCell>
        <mxCell id="JIK8sXZGodHxqaqUen1i-70" style="edgeStyle=orthogonalEdgeStyle;rounded=0;orthogonalLoop=1;jettySize=auto;html=1;exitX=0.5;exitY=1;exitDx=0;exitDy=0;" parent="1" source="JIK8sXZGodHxqaqUen1i-11" target="JIK8sXZGodHxqaqUen1i-14" edge="1">
          <mxGeometry relative="1" as="geometry" />
        </mxCell>
        <mxCell id="JIK8sXZGodHxqaqUen1i-11" value="WLW源关键词&lt;div&gt;ODPS表&lt;/div&gt;" style="rounded=1;whiteSpace=wrap;html=1;" parent="1" vertex="1">
          <mxGeometry x="120" y="560" width="110" height="40" as="geometry" />
        </mxCell>
        <mxCell id="JIK8sXZGodHxqaqUen1i-13" value="合并，对已存在的数据去重，形成增量表" style="rounded=0;whiteSpace=wrap;html=1;" parent="1" vertex="1">
          <mxGeometry x="120" y="480" width="480" height="40" as="geometry" />
        </mxCell>
        <mxCell id="JIK8sXZGodHxqaqUen1i-72" style="rounded=0;orthogonalLoop=1;jettySize=auto;html=1;exitX=0.5;exitY=1;exitDx=0;exitDy=0;entryX=0.25;entryY=0;entryDx=0;entryDy=0;" parent="1" source="JIK8sXZGodHxqaqUen1i-14" target="JIK8sXZGodHxqaqUen1i-17" edge="1">
          <mxGeometry relative="1" as="geometry" />
        </mxCell>
        <mxCell id="JIK8sXZGodHxqaqUen1i-14" value="WLW源关键词&lt;div&gt;MySQL表&lt;/div&gt;" style="rounded=1;whiteSpace=wrap;html=1;" parent="1" vertex="1">
          <mxGeometry x="120" y="640" width="110" height="40" as="geometry" />
        </mxCell>
        <mxCell id="JIK8sXZGodHxqaqUen1i-73" style="edgeStyle=orthogonalEdgeStyle;rounded=0;orthogonalLoop=1;jettySize=auto;html=1;exitX=0.5;exitY=1;exitDx=0;exitDy=0;entryX=0.5;entryY=0;entryDx=0;entryDy=0;" parent="1" source="JIK8sXZGodHxqaqUen1i-15" target="JIK8sXZGodHxqaqUen1i-17" edge="1">
          <mxGeometry relative="1" as="geometry" />
        </mxCell>
        <mxCell id="JIK8sXZGodHxqaqUen1i-15" value="EP源关键词&lt;div&gt;MySQL表&lt;/div&gt;" style="rounded=1;whiteSpace=wrap;html=1;" parent="1" vertex="1">
          <mxGeometry x="305" y="640" width="110" height="40" as="geometry" />
        </mxCell>
        <mxCell id="JIK8sXZGodHxqaqUen1i-16" value="关键词导入任务，补全品数、商数、相似词数据&lt;div&gt;WLW品搜接口&amp;nbsp;&lt;span style=&quot;background-color: initial;&quot;&gt;100QPS limit |&amp;nbsp;&lt;/span&gt;&lt;span style=&quot;background-color: initial;&quot;&gt;EP品搜接口&amp;nbsp;&lt;/span&gt;&lt;span style=&quot;background-color: initial;&quot;&gt;No QPS limit |&amp;nbsp;&lt;/span&gt;&lt;span style=&quot;background-color: initial;&quot;&gt;扩词接口&amp;nbsp;&lt;/span&gt;&lt;span style=&quot;background-color: initial;&quot;&gt;HSF&lt;/span&gt;&lt;/div&gt;" style="rounded=0;whiteSpace=wrap;html=1;" parent="1" vertex="1">
          <mxGeometry x="120" y="720" width="480" height="40" as="geometry" />
        </mxCell>
        <mxCell id="JIK8sXZGodHxqaqUen1i-17" value="关键词&lt;div&gt;MySQL表&lt;/div&gt;" style="rounded=1;whiteSpace=wrap;html=1;" parent="1" vertex="1">
          <mxGeometry x="305" y="800" width="110" height="40" as="geometry" />
        </mxCell>
        <mxCell id="JIK8sXZGodHxqaqUen1i-21" value="24W/day" style="ellipse;whiteSpace=wrap;html=1;" parent="1" vertex="1">
          <mxGeometry x="640" y="160" width="170" height="40" as="geometry" />
        </mxCell>
        <mxCell id="JIK8sXZGodHxqaqUen1i-22" value="WLW 35W/day&lt;div&gt;EP 80W/day&lt;/div&gt;" style="ellipse;whiteSpace=wrap;html=1;" parent="1" vertex="1">
          <mxGeometry x="640" y="720" width="170" height="40" as="geometry" />
        </mxCell>
        <mxCell id="JIK8sXZGodHxqaqUen1i-79" style="edgeStyle=orthogonalEdgeStyle;rounded=0;orthogonalLoop=1;jettySize=auto;html=1;exitX=0.5;exitY=1;exitDx=0;exitDy=0;entryX=0.5;entryY=0;entryDx=0;entryDy=0;" parent="1" source="JIK8sXZGodHxqaqUen1i-23" target="JIK8sXZGodHxqaqUen1i-76" edge="1">
          <mxGeometry relative="1" as="geometry" />
        </mxCell>
        <mxCell id="JIK8sXZGodHxqaqUen1i-23" value="5000W 英语关键词" style="rounded=1;whiteSpace=wrap;html=1;" parent="1" vertex="1">
          <mxGeometry x="1120" y="80" width="160" height="40" as="geometry" />
        </mxCell>
        <mxCell id="JIK8sXZGodHxqaqUen1i-42" value="30W/day" style="ellipse;whiteSpace=wrap;html=1;" parent="1" vertex="1">
          <mxGeometry x="1680" y="480" width="170" height="40" as="geometry" />
        </mxCell>
        <mxCell id="JIK8sXZGodHxqaqUen1i-84" style="rounded=0;orthogonalLoop=1;jettySize=auto;html=1;exitX=0.5;exitY=1;exitDx=0;exitDy=0;entryX=0.25;entryY=0;entryDx=0;entryDy=0;" parent="1" source="JIK8sXZGodHxqaqUen1i-44" target="JIK8sXZGodHxqaqUen1i-74" edge="1">
          <mxGeometry relative="1" as="geometry" />
        </mxCell>
        <mxCell id="JIK8sXZGodHxqaqUen1i-44" value="德语导入定时任务" style="rounded=1;whiteSpace=wrap;html=1;" parent="1" vertex="1">
          <mxGeometry x="960" y="400" width="110" height="40" as="geometry" />
        </mxCell>
        <mxCell id="JIK8sXZGodHxqaqUen1i-85" style="edgeStyle=orthogonalEdgeStyle;rounded=0;orthogonalLoop=1;jettySize=auto;html=1;exitX=0.5;exitY=1;exitDx=0;exitDy=0;" parent="1" source="JIK8sXZGodHxqaqUen1i-45" target="JIK8sXZGodHxqaqUen1i-74" edge="1">
          <mxGeometry relative="1" as="geometry" />
        </mxCell>
        <mxCell id="JIK8sXZGodHxqaqUen1i-45" value="法语导入定时任务" style="rounded=1;whiteSpace=wrap;html=1;" parent="1" vertex="1">
          <mxGeometry x="1145" y="400" width="110" height="40" as="geometry" />
        </mxCell>
        <mxCell id="JIK8sXZGodHxqaqUen1i-86" style="rounded=0;orthogonalLoop=1;jettySize=auto;html=1;exitX=0.5;exitY=1;exitDx=0;exitDy=0;entryX=0.75;entryY=0;entryDx=0;entryDy=0;" parent="1" source="JIK8sXZGodHxqaqUen1i-46" target="JIK8sXZGodHxqaqUen1i-74" edge="1">
          <mxGeometry relative="1" as="geometry" />
        </mxCell>
        <mxCell id="JIK8sXZGodHxqaqUen1i-46" value="意大利语导入&lt;div&gt;定时任务&lt;/div&gt;" style="rounded=1;whiteSpace=wrap;html=1;" parent="1" vertex="1">
          <mxGeometry x="1330" y="400" width="110" height="40" as="geometry" />
        </mxCell>
        <mxCell id="JIK8sXZGodHxqaqUen1i-74" value="关键词&lt;div&gt;MySQL表&lt;/div&gt;" style="rounded=1;whiteSpace=wrap;html=1;" parent="1" vertex="1">
          <mxGeometry x="1145" y="560" width="110" height="40" as="geometry" />
        </mxCell>
        <mxCell id="JIK8sXZGodHxqaqUen1i-75" value="CSV上传到ODPS" style="rounded=0;whiteSpace=wrap;html=1;" parent="1" vertex="1">
          <mxGeometry x="960" y="160" width="480" height="40" as="geometry" />
        </mxCell>
        <mxCell id="JIK8sXZGodHxqaqUen1i-80" style="edgeStyle=orthogonalEdgeStyle;rounded=0;orthogonalLoop=1;jettySize=auto;html=1;exitX=0.5;exitY=1;exitDx=0;exitDy=0;entryX=0.5;entryY=0;entryDx=0;entryDy=0;" parent="1" source="JIK8sXZGodHxqaqUen1i-76" target="JIK8sXZGodHxqaqUen1i-78" edge="1">
          <mxGeometry relative="1" as="geometry" />
        </mxCell>
        <mxCell id="JIK8sXZGodHxqaqUen1i-76" value="英语关键词ODPS表" style="rounded=1;whiteSpace=wrap;html=1;" parent="1" vertex="1">
          <mxGeometry x="1145" y="240" width="110" height="40" as="geometry" />
        </mxCell>
        <mxCell id="JIK8sXZGodHxqaqUen1i-81" style="rounded=0;orthogonalLoop=1;jettySize=auto;html=1;exitX=0.25;exitY=1;exitDx=0;exitDy=0;entryX=0.5;entryY=0;entryDx=0;entryDy=0;" parent="1" source="JIK8sXZGodHxqaqUen1i-78" target="JIK8sXZGodHxqaqUen1i-44" edge="1">
          <mxGeometry relative="1" as="geometry" />
        </mxCell>
        <mxCell id="JIK8sXZGodHxqaqUen1i-82" style="edgeStyle=orthogonalEdgeStyle;rounded=0;orthogonalLoop=1;jettySize=auto;html=1;exitX=0.5;exitY=1;exitDx=0;exitDy=0;entryX=0.5;entryY=0;entryDx=0;entryDy=0;" parent="1" source="JIK8sXZGodHxqaqUen1i-78" target="JIK8sXZGodHxqaqUen1i-45" edge="1">
          <mxGeometry relative="1" as="geometry" />
        </mxCell>
        <mxCell id="JIK8sXZGodHxqaqUen1i-83" style="rounded=0;orthogonalLoop=1;jettySize=auto;html=1;exitX=0.75;exitY=1;exitDx=0;exitDy=0;entryX=0.5;entryY=0;entryDx=0;entryDy=0;" parent="1" source="JIK8sXZGodHxqaqUen1i-78" target="JIK8sXZGodHxqaqUen1i-46" edge="1">
          <mxGeometry relative="1" as="geometry" />
        </mxCell>
        <mxCell id="JIK8sXZGodHxqaqUen1i-89" style="edgeStyle=orthogonalEdgeStyle;rounded=0;orthogonalLoop=1;jettySize=auto;html=1;exitX=1;exitY=0.5;exitDx=0;exitDy=0;entryX=0.5;entryY=0;entryDx=0;entryDy=0;" parent="1" source="JIK8sXZGodHxqaqUen1i-78" target="JIK8sXZGodHxqaqUen1i-87" edge="1">
          <mxGeometry relative="1" as="geometry" />
        </mxCell>
        <mxCell id="JIK8sXZGodHxqaqUen1i-78" value="源关键词MySQL表" style="rounded=1;whiteSpace=wrap;html=1;" parent="1" vertex="1">
          <mxGeometry x="1145" y="320" width="110" height="40" as="geometry" />
        </mxCell>
        <mxCell id="JIK8sXZGodHxqaqUen1i-24" value="在线翻译&amp;amp;导入服务" style="rounded=0;whiteSpace=wrap;html=1;" parent="1" vertex="1">
          <mxGeometry x="960" y="480" width="480" height="40" as="geometry" />
        </mxCell>
        <mxCell id="JIK8sXZGodHxqaqUen1i-88" style="edgeStyle=orthogonalEdgeStyle;rounded=0;orthogonalLoop=1;jettySize=auto;html=1;exitX=0.5;exitY=1;exitDx=0;exitDy=0;entryX=1;entryY=0.5;entryDx=0;entryDy=0;" parent="1" source="JIK8sXZGodHxqaqUen1i-87" target="JIK8sXZGodHxqaqUen1i-74" edge="1">
          <mxGeometry relative="1" as="geometry" />
        </mxCell>
        <mxCell id="JIK8sXZGodHxqaqUen1i-87" value="英语导入定时任务" style="rounded=1;whiteSpace=wrap;html=1;" parent="1" vertex="1">
          <mxGeometry x="1520" y="400" width="110" height="40" as="geometry" />
        </mxCell>
        <mxCell id="JIK8sXZGodHxqaqUen1i-90" value="80W/day" style="ellipse;whiteSpace=wrap;html=1;" parent="1" vertex="1">
          <mxGeometry x="1680" y="400" width="170" height="40" as="geometry" />
        </mxCell>
        <mxCell id="WuUAcV9Ics9sc8fS_I74-1" value="5000W 英语关键词" style="rounded=1;whiteSpace=wrap;html=1;" vertex="1" parent="1">
          <mxGeometry x="2040" y="80" width="160" height="40" as="geometry" />
        </mxCell>
      </root>
    </mxGraphModel>
  </diagram>
</mxfile>
